<svg width="1600" height="753" viewBox="0 0 1600 753" fill="none" xmlns="http://www.w3.org/2000/svg">
<path fill-rule="evenodd" clip-rule="evenodd" d="M0 660.285L38 662.86C76 665.435 152 670.586 229 668.011C305 665.435 381 655.134 457 660.285C533 665.435 610 686.039 686 680.888C762 675.737 838 644.832 914 637.106C990 629.379 1067 644.832 1143 652.558C1219 660.285 1295 660.285 1371 665.435C1448 670.586 1524 680.888 1562 686.039L1600 691.19V753H1562C1524 753 1448 753 1371 753C1295 753 1219 753 1143 753C1067 753 990 753 914 753C838 753 762 753 686 753C610 753 533 753 457 753C381 753 305 753 229 753C152 753 76 753 38 753H0V660.285Z" fill="url(#paint0_radial_90_439)" fill-opacity="0.4"/>
<path fill-rule="evenodd" clip-rule="evenodd" d="M1404.27 0.0192837C1425.66 0.488119 1445.8 8.74225 1463.01 21.0722C1480.1 33.3196 1491.92 50.2904 1500.64 69.0772C1510.33 89.962 1520.77 112.14 1515.66 134.499C1510.32 157.851 1492.7 176.695 1472.81 190.848C1452.84 205.054 1428.94 215.834 1404.27 213.739C1380.54 211.725 1361.17 195.838 1343.93 179.91C1328.61 165.757 1320.61 147.211 1311.98 128.481C1302.18 107.191 1283.9 86.0141 1290.35 63.5523C1296.82 40.9989 1322.63 30.1309 1343.56 18.4547C1362.4 7.9479 1382.53 -0.456924 1404.27 0.0192837Z" fill="url(#paint1_linear_90_439)" fill-opacity="0.5"/>
<g opacity="0.5">
<path fill-rule="evenodd" clip-rule="evenodd" d="M196.23 369.023C216.393 373.078 235.087 381.21 250.536 394.492C264.868 406.813 270.596 424.635 279.872 440.931C292.021 462.275 322.732 481.99 313.19 504.562C303.382 527.765 266.128 519.809 242.421 529.528C226.088 536.224 213.293 547.862 196.23 552.511C173.113 558.81 148.113 571.374 126.543 561.1C104.53 550.615 90.4679 525.33 89.0486 501.46C87.7205 479.124 114.002 464.846 119.528 443.132C125.807 418.462 104.301 386.689 122.808 368.807C140.64 351.579 171.658 364.082 196.23 369.023Z" fill="url(#paint2_linear_90_439)"/>
</g>
<g opacity="0.5">
<path fill-rule="evenodd" clip-rule="evenodd" d="M359.581 30.3031C379.21 30.0702 399.424 17.1866 416.885 26.1928C434.881 35.4743 444.328 56.4742 448.753 76.2958C452.928 95.0007 445.712 113.346 440.454 131.773C434.973 150.979 434.469 174.982 417.578 185.541C400.729 196.074 379.25 184.994 359.581 182.33C343.02 180.087 323.957 182.891 311.938 171.232C300.205 159.849 306.946 139.681 300.228 124.752C292.088 106.663 268.395 95.6805 269.012 75.8398C269.642 55.5918 285.213 36.611 303.253 27.5409C320.484 18.8776 340.313 30.5317 359.581 30.3031Z" fill="url(#paint3_linear_90_439)"/>
</g>
<path fill-rule="evenodd" clip-rule="evenodd" d="M1246.99 356.492C1261.94 362.786 1272.22 375.927 1282.8 388.232C1290.73 397.448 1292.33 410.572 1300.91 419.182C1313.79 432.104 1341.34 432.429 1344.73 450.369C1347.85 466.852 1323.09 475.025 1314.15 489.213C1305.68 502.664 1304.44 519.694 1293.69 531.401C1280.83 545.403 1265.74 559.329 1246.99 562.362C1227.54 565.507 1208.52 556.433 1190.68 548.063C1171.65 539.132 1141.63 533.199 1140.08 512.2C1138.19 486.643 1170.92 472.711 1183.45 450.369C1188.89 440.671 1191.93 429.939 1192.45 418.827C1193.57 394.933 1172.49 366.404 1188.23 348.415C1201.48 333.263 1228.45 348.686 1246.99 356.492Z" fill="url(#paint4_linear_90_439)" fill-opacity="0.5"/>
<defs>
<radialGradient id="paint0_radial_90_439" cx="0" cy="0" r="1" gradientUnits="userSpaceOnUse" gradientTransform="translate(8.52886e-06 694) scale(1600 21694.9)">
<stop stop-color="#FD9DBC"/>
<stop offset="0.315625" stop-color="#FFC5BB"/>
<stop offset="0.622917" stop-color="#FFA1FF"/>
<stop offset="1" stop-color="#AC64FF"/>
</radialGradient>
<linearGradient id="paint1_linear_90_439" x1="1289" y1="107" x2="1517" y2="107" gradientUnits="userSpaceOnUse">
<stop stop-color="#FAD0C4"/>
<stop offset="0.01" stop-color="#FAD0C4"/>
<stop offset="1" stop-color="#FFD1FF"/>
</linearGradient>
<linearGradient id="paint2_linear_90_439" x1="89" y1="462.5" x2="315" y2="462.5" gradientUnits="userSpaceOnUse">
<stop stop-color="#FF9A9E"/>
<stop offset="0.99" stop-color="#FAD0C4"/>
<stop offset="1" stop-color="#FAD0C4"/>
</linearGradient>
<linearGradient id="paint3_linear_90_439" x1="269" y1="106.5" x2="450" y2="106.5" gradientUnits="userSpaceOnUse">
<stop stop-color="#A1C4FD"/>
<stop offset="1" stop-color="#C2E9FB"/>
</linearGradient>
<linearGradient id="paint4_linear_90_439" x1="1140" y1="369" x2="1345" y2="563" gradientUnits="userSpaceOnUse">
<stop stop-color="#8C9EF4"/>
<stop offset="1" stop-color="#D2DFFF"/>
</linearGradient>
</defs>
</svg>
