<svg width="60" height="60" viewBox="0 0 60 60" fill="none" xmlns="http://www.w3.org/2000/svg">
<path d="M50 5H23.3333V13.3333H26.6667V8.33333H50C51 8.33333 51.6667 9 51.6667 10V28.3333C51.6667 29.3333 51 30 50 30H28.3333V41.6667H19.5L13.3333 46.5V41.6667H8.33334C7.33334 41.6667 6.66668 41 6.66668 40V21.6667C6.66668 20.6667 7.33334 20 8.33334 20H30V16.6667H8.33334C5.50001 16.6667 3.33334 18.8333 3.33334 21.6667V40C3.33334 42.8333 5.50001 45 8.33334 45H10V53.5L20.5 45H31.6667V33.3333H50C52.8333 33.3333 55 31.1667 55 28.3333V10C55 7.16667 52.8333 5 50 5Z" fill="#0F233D"/>
<path d="M10.3333 38.1667H14.3333L15.3333 35.5H20.5L21.5 38.1667H25.5L19.8333 23.3333H15.8333L10.3333 38.1667ZM17.8333 27.5L19.5 32.6667H16.1667L17.8333 27.5Z" fill="#0F233D"/>
<path d="M33.3333 28.3333C35.1667 28.3333 37.6667 27.8333 40 26.6667C42.3333 27.8333 45 28.3333 46.6667 28.3333V25C46.6667 25 45 25 43.1667 24.3333C45.1667 22.3333 46.6667 19.3333 46.6667 15V13.3333H41.6667V10H38.3333V13.3333H33.3333V16.6667H43.1667C42.8333 19.6667 41.5 21.5 40 22.6667C39 21.8333 38 20.6667 37.3333 19.1667H33.8333C34.5 21.3333 35.5 23 36.8333 24.3333C35.1667 25 33.6667 25 33.3333 25V28.3333Z" fill="#0F233D"/>
</svg>
