<svg width="34" height="34" viewBox="0 0 34 34" fill="none" xmlns="http://www.w3.org/2000/svg">
<path d="M15.4275 25.8967L16.235 21.8026C16.405 20.9667 16.1784 20.1026 15.64 19.4509C15.1017 18.7992 14.3084 18.4167 13.4584 18.4167H5.66671V16.8867L9.30754 8.50008H20.7684C21.0234 8.50008 21.25 8.72675 21.25 8.98175V20.0884L15.4275 25.8967ZM14.1667 31.1667L23.2475 22.0859C23.7859 21.5476 24.0834 20.8251 24.0834 20.0742V8.98175C24.0834 7.15425 22.5959 5.66675 20.7684 5.66675H9.29337C8.28754 5.66675 7.36671 6.19091 6.85671 7.04091L3.07421 15.7534C2.91837 16.1076 2.83337 16.4901 2.83337 16.8867V18.4167C2.83337 19.9751 4.10837 21.2501 5.66671 21.2501H13.4584L12.155 27.8376C12.0842 28.1492 12.1267 28.4892 12.2684 28.7726C12.5942 29.4101 13.005 29.9909 13.515 30.5009L14.1667 31.1667ZM28.3334 21.2501H31.1667V5.66675H28.3334C27.5542 5.66675 26.9167 6.30425 26.9167 7.08341V19.8334C26.9167 20.6126 27.5542 21.2501 28.3334 21.2501Z" fill="black"/>
</svg>
