<svg width="34" height="34" viewBox="0 0 34 34" fill="none" xmlns="http://www.w3.org/2000/svg">
<path d="M18.5725 8.10325L17.765 12.1974C17.595 13.0332 17.8217 13.8974 18.36 14.5491C18.8984 15.2008 19.6917 15.5833 20.5417 15.5833H28.3334V17.1132L24.6925 25.4999H13.2317C12.9767 25.4999 12.75 25.2732 12.75 25.0182V13.9116L18.5725 8.10325ZM19.8334 2.83325L10.7525 11.9141C10.2142 12.4524 9.91671 13.1749 9.91671 13.9258V25.0182C9.91671 26.8457 11.4042 28.3332 13.2317 28.3332H24.7067C25.7125 28.3332 26.6334 27.8091 27.1434 26.9591L30.9259 18.2466C31.0817 17.8924 31.1667 17.5099 31.1667 17.1132V15.5833C31.1667 14.0249 29.8917 12.7499 28.3334 12.7499H20.5417L21.845 6.16242C21.9159 5.85075 21.8734 5.51075 21.7317 5.22742C21.4059 4.58992 20.995 4.00909 20.485 3.49909L19.8334 2.83325ZM5.66671 12.7499H2.83337V28.3332H5.66671C6.44587 28.3332 7.08337 27.6957 7.08337 26.9166V14.1666C7.08337 13.3874 6.44587 12.7499 5.66671 12.7499Z" fill="black"/>
</svg>
