<svg width="1600" height="118" viewBox="0 0 1600 118" fill="none" xmlns="http://www.w3.org/2000/svg">
<path fill-rule="evenodd" clip-rule="evenodd" d="M0 25.2846L38 27.86C76 30.4354 152 35.5863 229 33.0109C305 30.4354 381 20.1337 457 25.2846C533 30.4354 610 51.0389 686 45.888C762 40.7372 838 9.83202 914 2.10574C990 -5.62054 1067 9.83203 1143 17.5583C1219 25.2846 1295 25.2846 1371 30.4354C1448 35.5863 1524 45.888 1562 51.0389L1600 56.1897V118H1562C1524 118 1448 118 1371 118C1295 118 1219 118 1143 118C1067 118 990 118 914 118C838 118 762 118 686 118C610 118 533 118 457 118C381 118 305 118 229 118C152 118 76 118 38 118H0V25.2846Z" fill="url(#paint0_radial_3_239)" fill-opacity="0.4"/>
<defs>
<radialGradient id="paint0_radial_3_239" cx="0" cy="0" r="1" gradientUnits="userSpaceOnUse" gradientTransform="translate(8.52886e-06 58.9998) scale(1600 21694.9)">
<stop stop-color="#FD9DBC"/>
<stop offset="0.315625" stop-color="#FFC5BB"/>
<stop offset="0.622917" stop-color="#FFA1FF"/>
<stop offset="1" stop-color="#AC64FF"/>
</radialGradient>
</defs>
</svg>
